<svg xmlns="http://www.w3.org/2000/svg" viewBox="0 0 33.66 33.66"><defs><style>.cls-1{fill:none;stroke:#00cacf;stroke-miterlimit:10;stroke-width:1.66px;}</style></defs><title>Icono_prueba</title><g id="Capa_2" data-name="Capa 2"><g id="Contenido"><path class="cls-1" d="M10.43,31.68V20.1a1.17,1.17,0,0,0-1.11-1.19H1.94A1.17,1.17,0,0,0,.83,20.1V31.68C.83,33.21,10.43,33.22,10.43,31.68Z"/><path class="cls-1" d="M21.63,31.68V12.35a1.17,1.17,0,0,0-1.11-1.19H13.14A1.17,1.17,0,0,0,12,12.35V31.68C12,33.21,21.63,33.22,21.63,31.68Z"/><path class="cls-1" d="M32.83,31.68V2A1.17,1.17,0,0,0,31.72.83H24.34A1.17,1.17,0,0,0,23.23,2V31.68C23.23,33.21,32.83,33.22,32.83,31.68Z"/></g></g></svg>