<svg xmlns="http://www.w3.org/2000/svg" viewBox="0 0 67.45 49.55"><defs><style>.cls-1{fill:#009ee2;}.cls-2{fill:#003e66;}</style></defs><title>Logo_Bogotá mejor</title><g id="Capa_2" data-name="Capa 2"><g id="Contenido"><path class="cls-1" d="M3,22.8c.61,0,1-.22,1-.69v0c0-.42-.32-.69-1-.69H1.36V22.8Zm-.37-2.54c.61,0,1-.2,1-.67v0c0-.41-.32-.65-.91-.65H1.36v1.34ZM0,18.4A.69.69,0,0,1,.7,17.7H2.94a2.29,2.29,0,0,1,1.65.56A1.45,1.45,0,0,1,5,19.33v0a1.47,1.47,0,0,1-.83,1.36,1.54,1.54,0,0,1,1.18,1.55v0C5.38,23.44,4.44,24,3,24H.7A.69.69,0,0,1,0,23.32Z"/><path class="cls-1" d="M12.9,19.89v0a2.52,2.52,0,0,0-2.51-2.61,2.48,2.48,0,0,0-2.49,2.58v0a2.52,2.52,0,0,0,2.51,2.61,2.48,2.48,0,0,0,2.49-2.58M6,19.89v0a4.29,4.29,0,0,1,4.42-4.29,4.25,4.25,0,0,1,4.4,4.27v0a4.29,4.29,0,0,1-4.42,4.29A4.25,4.25,0,0,1,6,19.89"/><path class="cls-1" d="M15.69,18.81v0a5.37,5.37,0,0,1,5.48-5.41,5.81,5.81,0,0,1,3.57,1,1.15,1.15,0,0,1,.48.93,1.14,1.14,0,0,1-1.14,1.14,1.12,1.12,0,0,1-.7-.24,3.66,3.66,0,0,0-2.29-.72,3.14,3.14,0,0,0-3,3.26v0a3.13,3.13,0,0,0,3.17,3.32,3.68,3.68,0,0,0,2.17-.63V20H21.88a1,1,0,0,1-1-1,1,1,0,0,1,1-1h2.63a1.14,1.14,0,0,1,1.15,1.15v2.54a1.56,1.56,0,0,1-.81,1.47,7,7,0,0,1-3.66,1,5.24,5.24,0,0,1-5.5-5.38"/><path class="cls-1" d="M37,17.65v0a3.89,3.89,0,0,0-3.88-4,3.83,3.83,0,0,0-3.84,4v0a3.89,3.89,0,0,0,3.88,4,3.83,3.83,0,0,0,3.84-4m-10.67,0v0A6.62,6.62,0,0,1,33.14,11a6.56,6.56,0,0,1,6.79,6.59v0a6.62,6.62,0,0,1-6.82,6.62,6.56,6.56,0,0,1-6.79-6.59"/><path class="cls-1" d="M43.29,11.79H40a1.55,1.55,0,0,1,0-3.11H49.9a1.55,1.55,0,1,1,0,3.11H46.66V22.46a1.69,1.69,0,1,1-3.37,0Z"/><path class="cls-1" d="M57.22,3.79a1.44,1.44,0,0,1,.26-.7L58.89.88A1.68,1.68,0,0,1,60.36,0c1,0,2.19.59,2.19,1.19a1.27,1.27,0,0,1-.52.93l-1.6,1.49a2.88,2.88,0,0,1-2.24.85c-.57,0-1-.26-1-.67m3.56,12.68-2.5-6-2.5,6Zm-11.16,5L55.9,7.27A2.45,2.45,0,0,1,58.22,5.7h.23a2.42,2.42,0,0,1,2.29,1.57L67,21.46a1.94,1.94,0,0,1,.21.8,1.88,1.88,0,0,1-1.88,1.91,2,2,0,0,1-1.91-1.37L62.24,20H54.31l-1.26,3a2,2,0,0,1-1.83,1.24,1.83,1.83,0,0,1-1.83-1.86,2.09,2.09,0,0,1,.23-.85"/><path class="cls-2" d="M0,28a1.46,1.46,0,0,1,1.47-1.47h.32a1.51,1.51,0,0,1,1.34.76L6.68,33.1l3.57-5.8a1.44,1.44,0,0,1,1.32-.74h.32A1.46,1.46,0,0,1,13.35,28V38.63a1.46,1.46,0,1,1-2.92,0V32l-2.57,4a1.43,1.43,0,0,1-1.22.74,1.43,1.43,0,0,1-1.22-.74L2.88,32v6.64A1.43,1.43,0,0,1,1.43,40.1,1.42,1.42,0,0,1,0,38.67Z"/><path class="cls-2" d="M16.56,38.52V28.1A1.46,1.46,0,0,1,18,26.64h7.4A1.32,1.32,0,0,1,26.74,28a1.3,1.3,0,0,1-1.32,1.3h-6V32h5.09a1.32,1.32,0,0,1,1.32,1.32,1.3,1.3,0,0,1-1.32,1.3H19.48v2.8h6a1.32,1.32,0,0,1,1.32,1.32A1.3,1.3,0,0,1,25.52,40H18a1.46,1.46,0,0,1-1.47-1.47"/><path class="cls-2" d="M28.84,39a1.47,1.47,0,0,1-.55-1.13,1.39,1.39,0,0,1,1.39-1.41,1.33,1.33,0,0,1,.88.3,2.82,2.82,0,0,0,1.77.67c1.14,0,1.83-.67,1.83-2.21V28a1.47,1.47,0,0,1,2.94,0v7.38a4.85,4.85,0,0,1-1.26,3.57,4.77,4.77,0,0,1-3.47,1.24A5.65,5.65,0,0,1,28.84,39"/><path class="cls-2" d="M50.63,33.35v0a4.06,4.06,0,0,0-4-4.2,4,4,0,0,0-4,4.16v0a4.06,4.06,0,0,0,4,4.2,4,4,0,0,0,4-4.16m-11.12,0v0a7.1,7.1,0,0,1,14.19,0v0a7.1,7.1,0,0,1-14.19,0"/><path class="cls-2" d="M62.22,33.12c1.43,0,2.25-.76,2.25-1.89v0c0-1.26-.88-1.91-2.31-1.91H59.25v3.83Zm-5.91-5a1.46,1.46,0,0,1,1.47-1.47h4.63A5.32,5.32,0,0,1,66.31,28,4.19,4.19,0,0,1,67.45,31v0a4.08,4.08,0,0,1-2.67,4.06l2,2.48a1.71,1.71,0,0,1,.48,1.13,1.37,1.37,0,0,1-1.39,1.35,1.76,1.76,0,0,1-1.45-.76L61.6,35.72H59.25v2.92a1.47,1.47,0,1,1-2.94,0Z"/><path class="cls-2" d="M2.74,46A1.08,1.08,0,0,0,4,44.94v0c0-.69-.48-1.05-1.24-1.05H1.53V46ZM0,43.25a.76.76,0,0,1,.76-.76H2.84a2.38,2.38,0,0,1,2.66,2.4v0c0,1.61-1.25,2.44-2.81,2.44H1.53v1.38a.76.76,0,0,1-.76.76A.76.76,0,0,1,0,48.73Z"/><path class="cls-2" d="M10.05,46.53l-1-2.29-1,2.29Zm-4.3,1.93L8.17,43a.94.94,0,0,1,.89-.61h.09A.93.93,0,0,1,10,43l2.42,5.47a.76.76,0,0,1,.08.31.72.72,0,0,1-.73.74.78.78,0,0,1-.73-.53l-.47-1.09H7.56L7.07,49a.75.75,0,0,1-.7.48.7.7,0,0,1-.71-.71.81.81,0,0,1,.09-.33"/><path class="cls-2" d="M16.83,45.86c.75,0,1.17-.4,1.17-1v0c0-.66-.46-1-1.2-1H15.28v2Zm-3.08-2.61a.76.76,0,0,1,.76-.76h2.41a2.77,2.77,0,0,1,2,.71,2.18,2.18,0,0,1,.6,1.59v0a2.12,2.12,0,0,1-1.39,2.12l1.06,1.29a.9.9,0,0,1,.25.59.71.71,0,0,1-.73.71.92.92,0,0,1-.75-.4L16.5,47.21H15.28v1.52a.76.76,0,1,1-1.53,0Z"/><path class="cls-2" d="M24.84,46.53l-1-2.29-1,2.29Zm-4.3,1.93L23,43a1,1,0,0,1,.89-.61h.09a.93.93,0,0,1,.88.61l2.42,5.47a.76.76,0,0,1,.08.31.72.72,0,0,1-.73.74.78.78,0,0,1-.74-.53l-.47-1.09H22.35L21.86,49a.75.75,0,0,1-.7.48.7.7,0,0,1-.7-.71.82.82,0,0,1,.09-.33"/><path class="cls-2" d="M33.13,43.89H31.66a.71.71,0,0,1,0-1.41h4.47a.71.71,0,0,1,0,1.41H34.66v4.84a.76.76,0,0,1-1.53,0Z"/><path class="cls-2" d="M43.14,46v0A2.11,2.11,0,0,0,41,43.77a2.08,2.08,0,0,0-2.09,2.17v0a2.11,2.11,0,0,0,2.11,2.19A2.08,2.08,0,0,0,43.14,46m-5.79,0v0a3.7,3.7,0,0,1,7.39,0v0a3.7,3.7,0,0,1-7.39,0"/><path class="cls-2" d="M48.81,48.06A2,2,0,0,0,50.9,46v0a2,2,0,0,0-2.1-2.1H47.63v4.19ZM46.1,43.25a.76.76,0,0,1,.76-.76h1.95a3.47,3.47,0,0,1,3.7,3.46v0a3.48,3.48,0,0,1-3.7,3.48H46.86a.76.76,0,0,1-.76-.76Z"/><path class="cls-2" d="M59.35,46v0a2.11,2.11,0,0,0-2.11-2.19,2.08,2.08,0,0,0-2.09,2.17v0a2.11,2.11,0,0,0,2.11,2.19A2.08,2.08,0,0,0,59.35,46m-5.79,0v0a3.7,3.7,0,0,1,7.39,0v0a3.7,3.7,0,0,1-7.39,0"/><path class="cls-2" d="M62.12,48.7a.72.72,0,0,1-.29-.58.7.7,0,0,1,.71-.71.73.73,0,0,1,.44.14,2.93,2.93,0,0,0,1.78.63c.63,0,1-.25,1-.66v0c0-.39-.24-.59-1.4-.88-1.4-.36-2.3-.74-2.3-2.13v0a2.18,2.18,0,0,1,2.43-2.1,4,4,0,0,1,2.2.62.71.71,0,0,1-.38,1.31.73.73,0,0,1-.39-.11,2.89,2.89,0,0,0-1.46-.47c-.59,0-.89.27-.89.61v0c0,.46.3.61,1.5.91,1.41.37,2.21.87,2.21,2.09v0c0,1.38-1.05,2.16-2.55,2.16a4.49,4.49,0,0,1-2.61-.83"/></g></g></svg>