<svg xmlns="http://www.w3.org/2000/svg" viewBox="0 0 256.27 54.61"><defs><style>.cls-1{fill:#fff;}.cls-2{fill:none;stroke:#fff;stroke-miterlimit:10;stroke-width:0.28px;}</style></defs><title>Datos_abiertos_logo2</title><g id="Capa_2" data-name="Capa 2"><g id="Contenido"><path class="cls-1" d="M143.15,24l-1.29-3.76h-7.39L133.18,24h-3L137,5.26h2.29L146.18,24ZM138.23,9.49l-2.92,8.31h5.76Z"/><path class="cls-1" d="M157.3,24h-7.58V5.26H157c3.47,0,5.66,2,5.66,5.13a4.24,4.24,0,0,1-2.53,4A4.45,4.45,0,0,1,163,18.7C163,22.15,160.62,24,157.3,24Zm-.53-16.18h-4.21v5.37h4.21c1.81,0,3.05-.95,3.05-2.68S158.59,7.81,156.78,7.81Zm.26,7.92h-4.47v5.71H157a2.78,2.78,0,0,0,3.08-2.87A2.76,2.76,0,0,0,157,15.73Z"/><path class="cls-1" d="M168.06,24V5.26h2.84V24Z"/><path class="cls-1" d="M176.69,24V5.26h12V7.81h-9.13v5.47h7.79v2.53h-7.79v5.63h9.13V24Z"/><path class="cls-1" d="M203.79,24l-3.95-7.89h-3.55V24h-2.84V5.26h7.26c3.55,0,5.81,2.29,5.81,5.47a4.92,4.92,0,0,1-3.74,5L207.1,24ZM200.5,7.81h-4.21v5.87h4.21c1.89,0,3.18-1.08,3.18-2.92A2.87,2.87,0,0,0,200.5,7.81Z"/><path class="cls-1" d="M217.92,7.81V24h-2.84V7.81h-5.16V5.26h13.15V7.81Z"/><path class="cls-1" d="M237.67,22.15a7.08,7.08,0,0,1-9.87,0C226,20.31,226,18.23,226,14.62s0-5.68,1.81-7.52a7.08,7.08,0,0,1,9.87,0c1.84,1.84,1.79,3.92,1.79,7.52S239.52,20.31,237.67,22.15ZM235.52,8.81a3.94,3.94,0,0,0-5.58,0c-.92,1-1.1,2.05-1.1,5.81s.18,4.81,1.1,5.81a3.94,3.94,0,0,0,5.58,0c.92-1,1.1-2.05,1.1-5.81S236.44,9.81,235.52,8.81Z"/><path class="cls-1" d="M249.54,24.15a8.48,8.48,0,0,1-6.63-2.47l1.89-1.87a6.18,6.18,0,0,0,4.79,1.79c2.45,0,3.87-1.05,3.87-2.87a2.52,2.52,0,0,0-.74-1.95,3.26,3.26,0,0,0-2.05-.79l-2.21-.32a6.41,6.41,0,0,1-3.55-1.5,4.66,4.66,0,0,1-1.37-3.58c0-3.26,2.37-5.5,6.26-5.5a7.8,7.8,0,0,1,5.81,2.13L253.8,9a5.5,5.5,0,0,0-4.08-1.45c-2.21,0-3.42,1.26-3.42,2.92a2.23,2.23,0,0,0,.71,1.74,4.18,4.18,0,0,0,2.1.87l2.13.32a6.2,6.2,0,0,1,3.5,1.39,4.9,4.9,0,0,1,1.53,3.84C256.27,22.1,253.46,24.15,249.54,24.15Z"/><path class="cls-1" d="M64.69,22.33A6.37,6.37,0,0,1,60,24H53.72V5.31H60A6.37,6.37,0,0,1,64.69,7c1.89,1.89,1.81,4.87,1.81,7.39S66.59,20.44,64.69,22.33ZM63.69,8a5.28,5.28,0,0,0-4-1.45H55.14v16.2h4.52a5.28,5.28,0,0,0,4-1.45c1.47-1.55,1.39-4.81,1.39-6.92S65.16,9.58,63.69,8Z"/><path class="cls-1" d="M80.69,19.49H72L70.32,24H68.8L75.69,5.31H77L83.84,24H82.32ZM72.4,18.23h7.84l-3.92-11Z"/><path class="cls-1" d="M90.45,24H89V6.58H83.45V5.31h12.6V6.58h-5.6Z"/><path class="cls-1" d="M109.57,22.28a6.67,6.67,0,0,1-9.37,0c-1.71-1.71-1.74-3.39-1.74-7.6s0-5.89,1.74-7.6a6.67,6.67,0,0,1,9.37,0c1.71,1.71,1.74,3.37,1.74,7.6S111.28,20.57,109.57,22.28ZM108.44,7.87a5.08,5.08,0,0,0-7.1,0c-1.34,1.34-1.45,2.81-1.45,6.81s.11,5.47,1.45,6.81a5.08,5.08,0,0,0,7.1,0c1.34-1.34,1.45-2.81,1.45-6.81S109.78,9.21,108.44,7.87Z"/><path class="cls-1" d="M121,24.2a7.94,7.94,0,0,1-6.23-2.47l1-1a6.58,6.58,0,0,0,5.31,2.21c3,0,4.81-1.42,4.81-3.87a3.27,3.27,0,0,0-1-2.63,4.53,4.53,0,0,0-2.71-1L120,15.1a6.37,6.37,0,0,1-3.34-1.37,4.27,4.27,0,0,1-1.47-3.45c0-3.16,2.21-5.13,5.81-5.13a7.4,7.4,0,0,1,5.39,2l-.92.92a6,6,0,0,0-4.55-1.74c-2.74,0-4.34,1.47-4.34,3.87a3,3,0,0,0,1,2.45,6.26,6.26,0,0,0,2.79,1.16l2,.32a5.69,5.69,0,0,1,3.34,1.24A4.6,4.6,0,0,1,127.36,19C127.36,22.2,125,24.2,121,24.2Z"/><path class="cls-1" d="M59.26,47.67H52.87V31.25H59c2.86,0,4.84,1.64,4.84,4.38a3.76,3.76,0,0,1-2.42,3.6,4,4,0,0,1,2.68,3.9C64.15,46.11,62.16,47.67,59.26,47.67Zm-.35-14.86H54.62v5.7h4.29c1.82,0,3.23-.9,3.23-2.86S60.73,32.82,58.91,32.82Zm.18,7.27H54.62v6H59.1c2,0,3.3-1.18,3.3-3S61.13,40.08,59.1,40.08Z"/><path class="cls-1" d="M77.59,46.11a6,6,0,0,1-8.4,0c-1.54-1.55-1.54-3.16-1.54-6.64s0-5.1,1.54-6.64a6,6,0,0,1,8.4,0c1.55,1.55,1.55,3.16,1.55,6.64S79.14,44.56,77.59,46.11ZM76.23,33.85a4,4,0,0,0-5.68,0c-1,1.06-1.15,2.17-1.15,5.61s.12,4.55,1.15,5.61a4,4,0,0,0,5.68,0c1-1.06,1.15-2.17,1.15-5.61S77.27,34.92,76.23,33.85Z"/><path class="cls-1" d="M92.77,45.92a6,6,0,0,1-8.58.18c-1.55-1.55-1.55-3.16-1.55-6.64s0-5.1,1.55-6.64a5.82,5.82,0,0,1,4.2-1.71A5.6,5.6,0,0,1,94.13,36H92.38a4,4,0,0,0-6.83-2.17c-1,1.06-1.15,2.17-1.15,5.61s.12,4.57,1.15,5.63a4,4,0,0,0,2.84,1.15,4,4,0,0,0,3.11-1.41,4.31,4.31,0,0,0,.92-3V40.61h-4V39.07h5.79v2.61A5.67,5.67,0,0,1,92.77,45.92Z"/><path class="cls-1" d="M107.58,46.11a6,6,0,0,1-8.4,0c-1.55-1.55-1.55-3.16-1.55-6.64s0-5.1,1.55-6.64a6,6,0,0,1,8.4,0c1.55,1.55,1.55,3.16,1.55,6.64S109.12,44.56,107.58,46.11Zm-1.36-12.25a4,4,0,0,0-5.68,0c-1,1.06-1.15,2.17-1.15,5.61s.12,4.55,1.15,5.61a4,4,0,0,0,5.68,0c1-1.06,1.15-2.17,1.15-5.61S107.25,34.92,106.22,33.85Z"/><path class="cls-1" d="M117.61,32.82V47.67h-1.75V32.82H111.1V31.25h11.26v1.57Z"/><path class="cls-1" d="M133.62,47.67,132.3,44h-7.17l-1.32,3.71h-1.87l6-16.43h1.48l6,16.43Zm-4.87-13.91-3.09,8.67h6.14Zm.28-4.11H127.5l2-3.53h2Z"/><path class="cls-2" d="M137.76,27.7H254.3"/><path class="cls-2" d="M53.84,27.7h67.57"/><path class="cls-1" d="M7.3,5l.13,0L8,4.88l.22,0,.75-.14H9l.72-.11.24,0,.54-.06.14,0v0h0L10.39.11A27.22,27.22,0,0,0,6,.86L7.29,5h0Z"/><path class="cls-1" d="M37.09,21.34h0l0,.12q.07.27.13.55l0,.21c.05.25.1.5.14.76h0c0,.25.08.5.11.75l0,.23q0,.27.06.54l0,.14,1.64-.08L42,24.43a27.24,27.24,0,0,0-.74-4.35l-4.15,1.25Z"/><path class="cls-1" d="M25.69,6.26l.12.08.46.29.2.13.61.41,0,0,.62.45.18.14.43.34.1.08v0h0L31.36,5a27.22,27.22,0,0,0-3.61-2.53L25.7,6.24h0Z"/><path class="cls-1" d="M18.41,49.58l-.13,0-.53.12-.22,0-.75.14h0L16,50l-.24,0-.54.06-.14,0v0h0l.22,4.33a27.22,27.22,0,0,0,4.35-.74L18.42,49.6h0Z"/><path class="cls-1" d="M32.16,39.71l-.13.2-.42.62h0l-.45.62-.13.17-.35.44-.08.1h0l3.22,2.91a27.24,27.24,0,0,0,2.53-3.61L34,39.9l-1.45-.78-.08.12Z"/><path class="cls-1" d="M12.51,50.25l-.74,0-.27,0-.46,0-.36,0-.35,0-.42,0-.27,0L9.17,50l-.15,0c-.41-.07-.81-.14-1.21-.23s-.8-.2-1.2-.31l-.14,0L6,49.22l-.26-.08L5.36,49,5,48.88l-.34-.13-.43-.17L4,48.48l-.68-.3-.13-.06-.47-.22L2.16,49,.67,51.74A26.69,26.69,0,0,0,13.4,54.6l-.16-3.15-.06-1.2h-.66Z"/><path class="cls-1" d="M28.32,44.27l-.17.15-.38.34-.22.18-.35.29-.24.19-.36.28-.23.17-.4.28-.21.14-.6.39,0,0-.61.37-.21.12-.43.24-.25.13-.42.22-.26.13-.43.21-.24.11-.51.22-.18.08-.7.27-.13,0-.48.17,1.26,4.17a27.39,27.39,0,0,0,11-7l-3.23-2.92-.32.32-.15.15Z"/><path class="cls-1" d="M35.82,27h0c0,.18,0,.36,0,.53s0,.09,0,.13q0,.38,0,.75c0,.07,0,.14,0,.21s0,.36,0,.54,0,.18,0,.27,0,.31,0,.47l0,.29q0,.23-.06.46l0,.28c0,.16-.05.33-.08.49l0,.23c0,.24-.09.48-.15.72s-.11.47-.17.71l-.06.23-.14.48-.08.27-.14.44-.09.27-.16.45-.1.26-.2.5-.08.19q-.15.34-.3.69l-.06.12-.23.48h0l1.63.88,2.19,1.18a26.68,26.68,0,0,0,2.87-12.73l-2.49.13L35.82,27Z"/><path class="cls-1" d="M29.32,11.31l.51.54L30,12l.36.41.17.21.3.37.18.22.28.37.17.23.29.41.14.2.39.6,0,0,.37.61.13.22.24.43.14.26.21.4.13.27.2.41.12.26.2.47.09.21q.14.34.27.68l.07.2.15.42,4.17-1.26a27.39,27.39,0,0,0-7-11l-2.92,3.23.36.36Z"/><path class="cls-1" d="M13.19,4.36l.75,0h.21l.53,0,.27,0,.47,0,.28,0,.46.06.28,0,.49.08.23,0,.72.15.71.17.23.06.48.14.27.08L20,5.5l.27.09.45.16.26.1.5.2.19.08.68.3.12.06.48.23.57-1.06L25,2.87A26.69,26.69,0,0,0,12.31,0l.16,3.15.06,1.2h.66Z"/><path class="cls-1" d="M30.44,23.16l-2.34.7v.06c.05.24.1.48.14.72v0c0,.24.07.48.1.72v.05h0l5.37-.27V25c0-.15,0-.29-.05-.44l0-.23q0-.29-.09-.58V23.7q-.06-.33-.12-.65l0-.21-.1-.44,0-.1Z"/><path class="cls-1" d="M21.21,14.07v0l0,0,.61.41h0l.59.43,0,0,3.63-4-.07-.06-.37-.29-.16-.12L25,10.13l0,0-.51-.34-.19-.12-.38-.24-.09-.06-2.55,4.74Z"/><path class="cls-1" d="M16.3,42.55h-.06l-.72.14h0l-.73.11h0l.27,5.4h.11l.45-.05.22,0L16.4,48h.06l.66-.12.19,0,.46-.1.09,0Z"/><path class="cls-1" d="M26.09,35.66h0l0,0q-.2.31-.4.61v0c-.14.2-.29.39-.43.59l0,0L27,38.59l2.2,2,.06-.08.28-.35.13-.17.39-.54,0-.07.33-.49.13-.2.24-.38.06-.1Z"/><path class="cls-1" d="M8.82,36.57l-1.7,3.17h0L7.7,40l.19.08.47.17.22.07.46.14.25.07.41.11.31.07.42.08.25,0,.48.07.23,0,.5,0h.21l.62,0h0l-.18-3.56A10.42,10.42,0,0,1,8.82,36.57Z"/><path class="cls-1" d="M23.87,38.39l0,0-.54.51-.12.11-.52.44-.08.06L22,40l-.14.1-.63.42h0l-.65.39-.15.09-.66.35-.09,0-.62.28-.15.06-.69.27,0,0v0h0l1.55,5.15.31-.11.21-.08.63-.25.08,0,.54-.23.21-.1.4-.19.23-.12.38-.2.23-.12.39-.22.19-.11.56-.34,0,0,.55-.36.18-.13.37-.26.21-.15.34-.26.2-.16.35-.29.17-.14.46-.4,0,0,.49-.46.14-.14.25-.25Z"/><path class="cls-1" d="M28.48,27.43c0,.05,0,.1,0,.16s0,.24,0,.35v.17q0,.19,0,.39v.11q0,.25,0,.49l0,.13q0,.19,0,.37l0,.16-.06.35,0,.15c0,.16-.06.32-.1.48s-.08.32-.12.48l0,.15-.1.34,0,.16-.11.35,0,.12-.17.46,0,.11-.14.36-.06.15-.14.32-.06.14L27,34l4.76,2.56.16-.33L32,36l.27-.62,0-.08.22-.55.08-.21.15-.43.08-.24.13-.41.07-.24.12-.44.06-.21c.06-.22.11-.43.16-.65s.09-.43.13-.65l0-.21c0-.15.05-.3.08-.45l0-.25q0-.21.06-.43l0-.25c0-.15,0-.3,0-.45l0-.23q0-.29,0-.59v-.09q0-.34,0-.68c0-.07,0-.13,0-.2s0-.24,0-.36l-5.4.27S28.48,27.41,28.48,27.43Z"/><path class="cls-1" d="M25,27.53l-1.59.08a10.42,10.42,0,0,1-1,3.89L25.29,33h0c.09-.2.18-.39.26-.59l.06-.15c.08-.19.15-.39.22-.59v0c.07-.2.13-.41.19-.61l0-.15c.06-.2.11-.41.16-.62s.09-.42.12-.62l0-.16c0-.21.06-.42.09-.63v0c0-.21,0-.41.05-.62V28.1c0-.21,0-.43,0-.65h0Z"/><path class="cls-1" d="M24,16.27h0l0,0,0,0,.51.54.11.12.44.52.06.08c.15.19.3.39.45.6l.1.14c.15.21.29.41.42.63h0c.13.21.26.43.39.65l.08.15c.12.22.24.44.35.66l0,.09q.15.31.28.62l.06.15q.14.34.27.69l0,0,5.18-1.56-.12-.33-.07-.19q-.12-.32-.25-.63l0-.06L32,18.68l-.09-.2-.19-.41-.11-.23-.2-.38-.12-.23-.22-.4L31,16.64l-.34-.56,0,0-.36-.55-.13-.18-.26-.37-.15-.21-.26-.34-.16-.21L29,13.85l-.15-.18-.39-.44-.06-.07L28,12.67l-.16-.16-.24-.24Z"/><path class="cls-1" d="M20.63,20a10.39,10.39,0,0,1,2.15,3.5l1.11-.33,1.82-.55h0c-.07-.2-.15-.4-.24-.6l-.06-.15c-.08-.19-.17-.39-.27-.58h0c-.09-.19-.2-.38-.3-.57l-.08-.14q-.32-.56-.69-1.08L24,19.32l-.39-.51h0l-.41-.49-.1-.12-.44-.47h0Z"/><path class="cls-1" d="M13,11.68h.64a15.16,15.16,0,0,1,5.22,1.17l.09,0,.38.17.11.05.08,0,2.56-4.76-.33-.16-.18-.09-.62-.27-.09,0-.54-.22-.21-.08-.43-.15-.24-.08L19,7.19l-.24-.07L18.33,7l-.21-.06-.65-.16-.65-.13-.21,0-.45-.08-.25,0-.43-.06-.25,0-.45,0-.23,0-.58,0h-.09l-.68,0h-.57l.27,5.4Z"/><path class="cls-1" d="M13.15,16.64a10.47,10.47,0,0,1,4,.87l1.42-2.64h0L18,14.62l-.19-.08-.47-.17-.21-.07-.46-.14-.25-.07L16,14l-.31-.07-.42-.08-.25,0-.48-.07-.23,0-.5,0h-.2l-.62,0h0L13,14Z"/><path class="cls-1" d="M4.27,35.55l1.2-1.33A10.43,10.43,0,0,1,3.4,31L0,32H0c.07.2.15.4.24.6l.06.15c.08.19.17.39.27.58h0c.09.19.2.38.3.57l.08.14q.32.56.69,1.08l.09.13.39.51h0l.41.49.1.12.44.47h0Z"/></g></g></svg>