<svg xmlns="http://www.w3.org/2000/svg" viewBox="0 0 260.31 58"><defs><style>.cls-1{fill:#00cacf;}.cls-2{fill:none;stroke:#00cacf;stroke-miterlimit:10;stroke-width:0.28px;}</style></defs><title>Datos_abiertos_Logo</title><g id="Capa_2" data-name="Capa 2"><g id="Contenido"><path class="cls-1" d="M149.81,28.69,148.55,25h-7.22l-1.26,3.67h-3l6.71-18.3h2.24l6.71,18.3ZM145,14.54l-2.85,8.12h5.63Z"/><path class="cls-1" d="M163.63,28.69h-7.4V10.4h7.12c3.39,0,5.52,1.93,5.52,5a4.14,4.14,0,0,1-2.47,3.88,4.35,4.35,0,0,1,2.75,4.24C169.16,26.9,166.87,28.69,163.63,28.69Zm-.51-15.8H159v5.24h4.11c1.77,0,3-.92,3-2.62S164.89,12.89,163.12,12.89Zm.26,7.73H159V26.2h4.37a2.8,2.8,0,1,0,0-5.58Z"/><path class="cls-1" d="M174.15,28.69V10.4h2.78v18.3Z"/><path class="cls-1" d="M182.57,28.69V10.4h11.69v2.49h-8.92v5.34H193V20.7h-7.61v5.5h8.92v2.49Z"/><path class="cls-1" d="M209,28.69,205.19,21h-3.47v7.71h-2.78V10.4H206c3.47,0,5.68,2.24,5.68,5.34a4.8,4.8,0,0,1-3.65,4.86l4.21,8.09Zm-3.21-15.8h-4.11v5.73h4.11a2.79,2.79,0,0,0,3.11-2.85A2.8,2.8,0,0,0,205.83,12.89Z"/><path class="cls-1" d="M222.84,12.89v15.8h-2.77V12.89h-5V10.4h12.85v2.49Z"/><path class="cls-1" d="M242.15,26.9a6.92,6.92,0,0,1-9.64,0c-1.8-1.8-1.77-3.83-1.77-7.35s0-5.55,1.77-7.35a6.92,6.92,0,0,1,9.64,0c1.8,1.8,1.75,3.83,1.75,7.35S243.94,25.1,242.15,26.9Zm-2.11-13a3.85,3.85,0,0,0-5.45,0c-.9,1-1.08,2-1.08,5.68s.18,4.7,1.08,5.68a3.85,3.85,0,0,0,5.45,0c.9-1,1.08-2,1.08-5.68S240.94,14.84,240,13.87Z"/><path class="cls-1" d="M253.74,28.85a8.29,8.29,0,0,1-6.48-2.42l1.85-1.82a6,6,0,0,0,4.68,1.75c2.39,0,3.78-1,3.78-2.8a2.46,2.46,0,0,0-.72-1.9,3.18,3.18,0,0,0-2-.77l-2.16-.31a6.26,6.26,0,0,1-3.47-1.46,4.55,4.55,0,0,1-1.34-3.49c0-3.19,2.31-5.37,6.12-5.37a7.62,7.62,0,0,1,5.68,2.08l-1.77,1.75a5.37,5.37,0,0,0-4-1.41c-2.16,0-3.34,1.23-3.34,2.85a2.18,2.18,0,0,0,.69,1.7,4.09,4.09,0,0,0,2.06.85l2.08.31a6.05,6.05,0,0,1,3.42,1.36,4.79,4.79,0,0,1,1.49,3.75C260.31,26.84,257.57,28.85,253.74,28.85Z"/><path class="cls-1" d="M73.16,27.08a6.22,6.22,0,0,1-4.57,1.67H62.45V10.45h6.14a6.22,6.22,0,0,1,4.57,1.67C75,14,74.94,16.88,74.94,19.34S75,25.23,73.16,27.08Zm-1-14a5.16,5.16,0,0,0-3.93-1.41H63.83V27.51h4.42a5.16,5.16,0,0,0,3.93-1.41c1.44-1.52,1.36-4.7,1.36-6.76S73.62,14.62,72.19,13.1Z"/><path class="cls-1" d="M88.79,24.3H80.26l-1.59,4.45H77.17l6.73-18.3h1.23l6.73,18.3H90.38Zm-8.09-1.23h7.66L84.52,12.3Z"/><path class="cls-1" d="M98.32,28.75H96.94V11.69H91.49V10.45H103.8v1.23H98.32Z"/><path class="cls-1" d="M117,27a6.51,6.51,0,0,1-9.15,0c-1.67-1.67-1.7-3.31-1.7-7.43s0-5.76,1.7-7.43a6.51,6.51,0,0,1,9.15,0c1.67,1.67,1.7,3.29,1.7,7.43S118.68,25.36,117,27ZM115.9,12.95a5,5,0,0,0-6.94,0c-1.31,1.31-1.41,2.75-1.41,6.66s.1,5.34,1.41,6.65a5,5,0,0,0,6.94,0c1.31-1.31,1.41-2.75,1.41-6.65S117.21,14.26,115.9,12.95Z"/><path class="cls-1" d="M128.21,28.9a7.76,7.76,0,0,1-6.09-2.42l1-1a6.43,6.43,0,0,0,5.19,2.16c2.9,0,4.7-1.39,4.7-3.78a3.19,3.19,0,0,0-1-2.57,4.42,4.42,0,0,0-2.65-1L127.21,20a6.23,6.23,0,0,1-3.26-1.34,4.17,4.17,0,0,1-1.44-3.37c0-3.08,2.16-5,5.68-5a7.23,7.23,0,0,1,5.27,2l-.9.9a5.81,5.81,0,0,0-4.45-1.7c-2.67,0-4.24,1.44-4.24,3.78a2.94,2.94,0,0,0,1,2.39,6.11,6.11,0,0,0,2.72,1.13l2,.31a5.56,5.56,0,0,1,3.26,1.21,4.5,4.5,0,0,1,1.59,3.55C134.38,26.95,132,28.9,128.21,28.9Z"/><path class="cls-1" d="M67.85,51.83H61.61v-16h6c2.79,0,4.73,1.6,4.73,4.28A3.68,3.68,0,0,1,70,43.58a3.88,3.88,0,0,1,2.61,3.81C72.63,50.3,70.69,51.83,67.85,51.83Zm-.34-14.51H63.32v5.57h4.19c1.78,0,3.15-.88,3.15-2.79S69.3,37.32,67.52,37.32Zm.18,7.1H63.32V50.3H67.7c2,0,3.22-1.15,3.22-3S69.68,44.42,67.7,44.42Z"/><path class="cls-1" d="M85.77,50.3a5.88,5.88,0,0,1-8.2,0c-1.51-1.51-1.51-3.09-1.51-6.49s0-5,1.51-6.49a5.88,5.88,0,0,1,8.2,0c1.51,1.51,1.51,3.09,1.51,6.49S87.28,48.79,85.77,50.3Zm-1.33-12a3.92,3.92,0,0,0-5.54,0c-1,1-1.13,2.12-1.13,5.48s.11,4.44,1.13,5.48a3.92,3.92,0,0,0,5.54,0c1-1,1.13-2.12,1.13-5.48S85.45,39.37,84.44,38.33Z"/><path class="cls-1" d="M100.59,50.12a5.88,5.88,0,0,1-8.38.18c-1.51-1.51-1.51-3.09-1.51-6.49s0-5,1.51-6.49a5.68,5.68,0,0,1,4.1-1.67,5.47,5.47,0,0,1,5.61,4.8h-1.71a3.95,3.95,0,0,0-6.67-2.12c-1,1-1.13,2.12-1.13,5.48s.11,4.46,1.13,5.5a3.86,3.86,0,0,0,2.77,1.13,3.91,3.91,0,0,0,3-1.37,4.21,4.21,0,0,0,.9-2.91V44.93H96.31V43.42H102V46A5.54,5.54,0,0,1,100.59,50.12Z"/><path class="cls-1" d="M115.06,50.3a5.88,5.88,0,0,1-8.2,0c-1.51-1.51-1.51-3.09-1.51-6.49s0-5,1.51-6.49a5.88,5.88,0,0,1,8.2,0c1.51,1.51,1.51,3.09,1.51,6.49S116.57,48.79,115.06,50.3Zm-1.33-12a3.92,3.92,0,0,0-5.54,0c-1,1-1.13,2.12-1.13,5.48s.11,4.44,1.13,5.48a3.92,3.92,0,0,0,5.54,0c1-1,1.13-2.12,1.13-5.48S114.74,39.37,113.73,38.33Z"/><path class="cls-1" d="M124.86,37.32V51.83h-1.71V37.32H118.5V35.78h11v1.53Z"/><path class="cls-1" d="M140.49,51.83l-1.28-3.63h-7l-1.29,3.63h-1.83l5.9-16h1.44l5.88,16Zm-4.75-13.59-3,8.47h6Zm.27-4h-1.49l2-3.45h1.94Z"/><path class="cls-2" d="M144.54,32.31H258.38"/><path class="cls-2" d="M62.56,32.31h66"/><polygon class="cls-1" points="31.46 27.05 31.46 27.05 33.83 26.39 31.46 27.05"/><path class="cls-1" d="M34.42,26.23h0v0Z"/><polygon class="cls-1" points="34.15 21.26 34.83 20.87 34.15 21.26 34.15 21.26"/><path class="cls-1" d="M40.55,22.8l0-.12,0,.12Z"/><path class="cls-1" d="M39.46,20.16h0l.06.11Z"/><path class="cls-1" d="M32.46,12.41l-.31-.2h0L29.62,16.7v0h0l2.54-4.5Z"/><path class="cls-1" d="M38.65,18.72h0l-.2-.3Z"/><path class="cls-1" d="M28.8,18.17h0l0,0Z"/><path class="cls-1" d="M38.66,39.26h0l-.19.31Z"/><path class="cls-1" d="M32.16,45.76l.31-.2-.31.19Z"/><path class="cls-1" d="M34.42,31.75v0Z"/><path class="cls-1" d="M33.73,44.69c-.32.25-.66.48-1,.7C33.07,45.16,33.41,44.93,33.73,44.69Z"/><path class="cls-1" d="M32.7,22.07l0,0,0,0Z"/><polygon class="cls-1" points="30.09 23.54 32.64 22.1 30.09 23.54 30.09 23.54"/><polygon class="cls-1" points="23.85 19.27 24.24 17.89 23.85 19.27 23.85 19.27"/><polygon class="cls-1" points="25.08 43.12 25.08 43.12 25.6 44.97 25.08 43.12"/><path class="cls-1" d="M46,37.17l.14-.42h0Z"/><path class="cls-1" d="M26.47,48.11h0l-.51.13Z"/><polygon class="cls-1" points="26.92 8.25 27.14 7.47 26.92 8.25 26.92 8.25"/><path class="cls-1" d="M24.64,16.45h0Z"/><path class="cls-1" d="M28,4.22h0Z"/><path class="cls-1" d="M28,53.75h0Z"/><polygon class="cls-1" points="29.62 41.27 29.61 41.25 29.61 41.25 29.62 41.27 29.62 41.27"/><path class="cls-1" d="M22.79,9.33h0Z"/><path class="cls-1" d="M22.62,3.46h0Z"/><path class="cls-1" d="M44.57,40.69l.18-.38-.19.37Z"/><path class="cls-1" d="M22.6,54.52h0Z"/><path class="cls-1" d="M25.17,14.54l1.3-4.68h0L26,9.75l.51.12Z"/><path class="cls-1" d="M22.64,16.17h0Z"/><path class="cls-1" d="M22.6,48.65h0Z"/><path class="cls-1" d="M33.2,51.86l.38-.19h0Z"/><path class="cls-1" d="M33,10.75,35,7.11h0L33,10.75Z"/><path class="cls-1" d="M28.07,10.32h0l.13,0Z"/><path class="cls-1" d="M40.55,35.18h0l0,.12Z"/><path class="cls-1" d="M46.64,22.82h0v0Z"/><path class="cls-1" d="M28.07,47.66l.13,0-.13,0Z"/><path class="cls-1" d="M30.71,46.57h0l-.11.05Z"/><path class="cls-1" d="M29.64,53.3l.42-.14-.43.13Z"/><polygon class="cls-1" points="42.62 23.94 42.62 23.94 43.15 23.79 42.62 23.94"/><path class="cls-1" d="M30.71,11.41l-.11,0,.11.05Z"/><path class="cls-1" d="M40.1,17.9l3.66-2.06h0v0Z"/><path class="cls-1" d="M41,24.39h0c0,.17.08.34.12.51C41.08,24.73,41,24.56,41,24.39Z"/><path class="cls-1" d="M46.64,35.16v0Z"/><path class="cls-1" d="M34.17,49.33,35,50.87h0Z"/><polygon class="cls-1" points="42.62 34.03 43.15 34.18 42.62 34.03 42.62 34.03"/><path class="cls-1" d="M43.75,42.16v0h0L40.1,40.08l3.66,2.06Z"/><path class="cls-1" d="M41,33.58c0-.17.08-.34.12-.51,0,.17-.08.34-.12.51Z"/><path class="cls-1" d="M39.46,37.81l0-.11-.06.11Z"/><path class="cls-1" d="M50.74,29A29.05,29.05,0,0,0,22.6,0V3.46h0l1.19.07.26,0,1.13.13h.11c.4.06.81.13,1.21.2l.28.05c.4.08.8.17,1.2.27h0l-.9,3.24-.22.78h0v0l-.6-.14a21.49,21.49,0,0,0-2.18-.35l-1-.08H22.6V9.32H23l.92.08a19.81,19.81,0,0,1,2,.33l.51.12h0l-1.3,4.68-.09.31-.13,0-.17,0L24,14.64l-.11,0L23,14.53H22.6v1.66h0l.76.07.22,0q.49.07,1,.18h0l-.4,1.44-.38,1.38h0l-.28,0-.3,0-.37,0-.3,0h0V43.47H23l.88-.1.11,0,.81-.15.18,0,.12,0h0L25.6,45l.87,3.13h0l-.51.12a19.77,19.77,0,0,1-2,.33l-.92.08H22.6v1.66h.53l1-.08a21.49,21.49,0,0,0,2.18-.35l.6-.14,1.13,4h0c-.41.1-.82.19-1.23.27l-.26.05c-.41.08-.81.15-1.22.2h-.11l-1.14.13-.27,0-1.19.07h0V58A29.05,29.05,0,0,0,50.74,29ZM46,37.17l-.12.36c-.15.42-.3.83-.47,1.24l0,0c-.16.4-.34.79-.52,1.17l-.16.34-.18.38h0L42,39.23l-1-.59h0L41,38.4l.11-.24c.15-.32.3-.65.44-1v0c.14-.34.27-.68.39-1l.09-.25.09-.26L46,36.69l.2.06h0Zm-7.4-18.46-3.81,2.15-.69.39h0l-.06-.09-.15-.22-.38-.55-.19-.25-.41-.51-.18-.22a14.52,14.52,0,0,0-1.31-1.31l-.22-.19-.5-.41-.26-.19-.54-.38-.23-.15-.09-.06h0v0l2.53-4.48h0l.31.2.27.18c.34.23.67.46,1,.7s.74.58,1.13.92a19.8,19.8,0,0,1,2.72,2.92c.24.32.48.66.7,1l.18.28.2.3Zm.78,1.46,0,0h0l0,.11c.19.39.37.78.54,1.18v0c.16.39.3.79.44,1.19l0,.12h0L36.21,24l-.63.18h0l-.1-.26c-.06-.17-.12-.34-.19-.5l-.13-.29c-.06-.14-.12-.29-.19-.43Zm-9.7-1.35.44.36.2.17c.2.17.39.35.58.54l0,0c.19.19.37.38.54.58l.16.19.36.45.16.21.37.53.1.15,0,0h0l-.06,0-2.55,1.44h0L30,23.43q-.19-.3-.41-.58l-.15-.19c-.18-.23-.38-.45-.58-.66l0,0c-.2-.2-.41-.4-.63-.58L28,21.24q-.28-.23-.58-.44l-.1-.08,1.44-2.56h0l0,0,.16.11.51.36Zm-.12,22.42.09-.06.24-.16.53-.37.26-.2.5-.4.22-.19c.23-.2.46-.41.67-.63h0c.22-.22.43-.44.63-.68l.18-.22.41-.51.19-.25.38-.55.15-.23.06-.09,4.5,2.54h0l-.2.3-.18.28c-.22.34-.46.67-.7,1a19.78,19.78,0,0,1-3.84,3.84c-.33.25-.66.48-1,.7l-.27.18-.31.2h0l-2.53-4.48v0Zm7.32-4.87-2-1.12c.07-.14.13-.29.19-.43l.13-.29c.07-.17.13-.34.2-.51l.09-.24h0l.63.18,4.33,1.21h0l0,.12c-.14.4-.28.8-.44,1.19l0,0c-.17.4-.35.79-.54,1.18l0,.11h0ZM36,32.19l0-.11.06-.28c0-.22.08-.43.12-.65l0-.32c0-.22.05-.43.07-.65s0-.19,0-.29c0-.31,0-.61,0-.92s0-.61,0-.92c0-.1,0-.19,0-.29s0-.43-.07-.65l0-.32c0-.22-.07-.43-.12-.65L36,25.89l0-.11,5-1.39h0c0,.17.08.34.12.51a19.86,19.86,0,0,1,.33,2,19,19,0,0,1,0,4.15,19.82,19.82,0,0,1-.33,2c0,.17-.08.34-.12.51h0ZM47.4,29.81c0,.09,0,.18,0,.27s0,.37,0,.55,0,.22,0,.32,0,.34,0,.5l0,.34q0,.25-.06.49l0,.34q0,.25-.08.5l-.06.34c0,.17-.07.34-.1.51l-.06.31c0,.2-.09.39-.13.58l-.06.24v0h0l-3.49-1L42.62,34h0c0-.2.1-.4.14-.6a21.56,21.56,0,0,0,.35-2.18,20.67,20.67,0,0,0,0-4.51,21.55,21.55,0,0,0-.35-2.18q-.06-.3-.14-.6h0l.54-.15,3.49-1h0v0l.06.25c0,.19.09.39.13.58l.06.32c0,.17.07.34.1.51l.06.34q0,.25.08.49l0,.34q0,.25.06.49l0,.34c0,.17,0,.34,0,.5s0,.22,0,.32,0,.37,0,.55,0,.18,0,.27c0,.27,0,.55,0,.82S47.41,29.53,47.4,29.81ZM46.52,17l.16.34c.18.39.36.77.52,1.17l0,0c.17.41.32.82.47,1.24l.12.36.13.43-.2.06-3.84,1.07-.09-.26-.09-.25c-.12-.35-.25-.69-.39-1h0c-.14-.33-.29-.66-.44-1l-.11-.23-.11-.24h0l1-.59,2.59-1.46ZM35,7.11h0c.4.24.8.5,1.19.77l.18.12q.56.39,1.09.8L37.7,9q.53.42,1,.87l.14.13a25.6,25.6,0,0,1,2,2l.13.14q.45.51.87,1l.15.19q.42.54.8,1.09l.12.18c.26.39.52.78.76,1.19v0h0L40.1,17.9,40,17.8l-.44-.69-.14-.21c-.18-.26-.36-.52-.55-.77A21.46,21.46,0,0,0,36,13c-.42-.37-.82-.69-1.22-1L34,11.41l-.21-.14-.67-.43L33,10.77h0L35,7.11ZM29.51,5.94l.84-3,.43.14.35.12c.42.15.84.3,1.24.47h0c.4.16.79.34,1.17.52l.34.17.37.19L32.24,8.18h0L32,8.08,31.75,8c-.32-.15-.63-.29-1-.43h0c-.33-.14-.67-.26-1-.38L29.48,7,29.22,7Zm-1.44,4.39h0l.13,0c.4.13.79.28,1.18.44l0,0c.4.17.79.35,1.18.54l.11,0h0l-1.31,2.32-1.23,2.18-.48-.21-.24-.11-.76-.29Zm0,37.33h0l-1.39-5,.76-.29.28-.13.44-.2.43.76,2.11,3.74h0l-.11,0c-.39.19-.78.37-1.18.54l0,0c-.39.16-.78.3-1.18.44Zm5.14,4.21-.33.16c-.39.18-.78.36-1.18.53h0c-.41.17-.82.32-1.24.47l-.35.12-.42.14h0l-1.12-4,.26-.09.27-.09c.34-.12.68-.25,1-.39h0c.33-.14.65-.28,1-.43l.24-.12.23-.11h0l2.05,3.64h0Zm8.7-7.05q-.42.53-.87,1l-.13.15c-.32.35-.64.7-1,1h0c-.34.34-.68.66-1,1l-.15.13q-.51.45-1,.87l-.2.16q-.53.41-1.09.8l-.19.13c-.38.26-.77.52-1.17.76h0l-.87-1.54L33,47.21l.09-.06.69-.45.21-.14.77-.55a21.43,21.43,0,0,0,4.17-4.17c.19-.25.37-.51.55-.77l.14-.21.44-.69.06-.1,3.66,2.06h0v0c-.24.4-.5.79-.76,1.18l-.13.19q-.39.56-.8,1.09Z"/><path class="cls-1" d="M12.23,9.94h0l.23-.11.25-.12c.32-.15.63-.29,1-.43h0c.33-.14.67-.26,1-.38L15,8.81l.26-.09-1.12-4-.42.13-.36.12c-.42.15-.83.3-1.24.47l0,0c-.4.16-.78.34-1.17.52l-.34.17-.37.19,2.05,3.64Z"/><path class="cls-1" d="M14.72,49.07c-.34-.12-.68-.25-1-.39h0c-.33-.14-.65-.28-1-.43l-.24-.12L12.24,48h0l-2.05,3.64.37.19.34.17c.39.18.78.36,1.18.53h0c.41.17.83.32,1.25.47l.35.12.43.13,1.12-4h0L15,49.17Z"/><path class="cls-1" d="M19.62,50.2c-.49-.05-1-.12-1.46-.21s-.84-.17-1.25-.27h-.07l-1.12,4h0l1.14.26.28.05,1.11.19h0l1.14.14.28,0,1.15.08h0V50.3h-.1C20.39,50.27,20,50.24,19.62,50.2Z"/><path class="cls-1" d="M19.73,3.55l-.27,0c-.39,0-.77.08-1.16.14h0l-1.14.2L16.88,4l-1.15.26h0l.66,2.37.46,1.66h0v0l.08,0c.41-.1.83-.19,1.24-.26s1-.16,1.46-.21.77-.07,1.16-.09h.1V3.47h0C20.5,3.49,20.11,3.52,19.73,3.55Z"/><path class="cls-1" d="M10.67,47.13l-.38-.25-.51-.34-.38-.27-.48-.35-.37-.29-.46-.38L7.74,45l-.45-.41L7,44.23l-.45-.45-.29-.3-.47-.53-.23-.27q-.34-.41-.67-.84c-.19-.25-.37-.51-.55-.77l-.14-.21-.44-.69-.06-.1-.25.14L0,42.14H0c.24.41.5.8.77,1.19l.12.17q.39.56.81,1.1l.15.19q.42.54.87,1l.13.14a25.59,25.59,0,0,0,2,2l.14.13q.51.45,1,.87l.19.15q.54.42,1.09.8l.18.12c.39.26.78.52,1.19.77h0l1-1.72,1.09-1.94Z"/><path class="cls-1" d="M3.22,22.8l3.16.88,1.8.5h0l.08-.2c.07-.19.14-.37.21-.56l.1-.23c.07-.17.14-.34.22-.5h0L4.3,20.16l-.06.11c-.19.38-.37.78-.54,1.18l0,0"/><path class="cls-1" d="M19.81,43.33h0c-.35-.05-.69-.12-1-.19h-.06l-1.25,4.5-.13.48.25.06.92.19c.44.08.9.15,1.35.2h0l1,.08h.06V43.45h-.07C20.48,43.42,20.15,43.38,19.81,43.33Z"/><path class="cls-1" d="M19.81,9.42h0c-.45,0-.9.11-1.35.2s-.71.14-1.07.23l-.1,0,.67,2.4.72,2.59h.06c.34-.08.69-.14,1-.19h0c.33,0,.67-.08,1-.11h.07V9.34h-.06Z"/><path class="cls-1" d="M9.61,21.26l.06-.09.15-.23.38-.55.19-.25.41-.51.18-.22a14.51,14.51,0,0,1,1.31-1.31l.22-.19.5-.41.26-.19.54-.38.23-.16.09-.06-2.54-4.5-.31.19-.28.18c-.34.22-.67.46-1,.7a19.77,19.77,0,0,0-3.84,3.84c-.24.32-.48.66-.7,1l-.18.28-.19.31,2.82,1.59Z"/><path class="cls-1" d="M14.42,22.75c.18-.23.37-.45.56-.66l0,0c.19-.2.39-.39.6-.57l.18-.15q.27-.23.56-.44l.1-.08-.57-1L15,18.17l0,0-.16.11-.51.36-.22.17-.44.36-.2.17c-.2.17-.39.35-.58.54l0,0c-.19.19-.37.38-.54.58l-.16.19-.36.45-.16.22-.37.53-.1.15,0,0,2.74,1.54.09-.12"/></g></g></svg>